<svg xmlns="http://www.w3.org/2000/svg" xmlns:xlink="http://www.w3.org/1999/xlink" width="500" zoomAndPan="magnify" viewBox="0 0 375 374.999991" height="500" preserveAspectRatio="xMidYMid meet" version="1.0"><defs><g/><clipPath id="3ac79ca142"><path d="M 136 115 L 262 115 L 262 212 L 136 212 Z M 136 115 " clip-rule="nonzero"/></clipPath><clipPath id="829a82ccc5"><path d="M 121.539062 183.996094 L 243.480469 96.640625 L 278.421875 145.417969 L 156.480469 232.769531 Z M 121.539062 183.996094 " clip-rule="nonzero"/></clipPath><clipPath id="50ad3f175c"><path d="M 121.539062 183.996094 L 243.480469 96.640625 L 278.421875 145.417969 L 156.480469 232.769531 Z M 121.539062 183.996094 " clip-rule="nonzero"/></clipPath></defs><g fill="#000000" fill-opacity="1"><g transform="translate(152.885933, 189.157538)"><g><path d="M -4.84375 -41.78125 C -6.5625 -43.84375 -7.421875 -45.890625 -7.421875 -47.921875 C -7.421875 -49.953125 -6.945312 -51.703125 -6 -53.171875 C -5.0625 -54.640625 -3.535156 -55.890625 -1.421875 -56.921875 C 0.691406 -57.953125 3.082031 -58.46875 5.75 -58.46875 L 39.953125 -58.46875 C 41.671875 -58.46875 43.570312 -58.632812 45.65625 -58.96875 C 47.738281 -59.300781 49.195312 -59.632812 50.03125 -59.96875 L 50.03125 -49.453125 L 49.203125 -49.546875 L 49.203125 -50.96875 C 49.203125 -52.300781 48.726562 -53.453125 47.78125 -54.421875 C 46.84375 -55.390625 45.734375 -55.90625 44.453125 -55.96875 L 28.609375 -55.96875 L 28.609375 -6 C 28.660156 -4 29.546875 -2.5 31.265625 -1.5 C 32.097656 -1.050781 32.988281 -0.828125 33.9375 -0.828125 L 35.03125 -0.828125 L 35.03125 0 L 16.765625 0 L 16.765625 -0.828125 L 17.84375 -0.828125 C 19.289062 -0.828125 20.523438 -1.328125 21.546875 -2.328125 C 22.578125 -3.335938 23.125 -4.535156 23.1875 -5.921875 L 23.1875 -55.96875 L 5.75 -55.96875 C 1.300781 -55.96875 -1.921875 -54.550781 -3.921875 -51.71875 C -4.984375 -50.269531 -5.515625 -48.753906 -5.515625 -47.171875 C -5.515625 -45.585938 -5.066406 -43.929688 -4.171875 -42.203125 Z M -4.84375 -41.78125 "/></g></g></g><g clip-path="url(#3ac79ca142)"><g clip-path="url(#829a82ccc5)"><g clip-path="url(#50ad3f175c)"><path fill="#000000" d="M 248.457031 115.605469 C 243.5 115.335938 238.457031 116.117188 233.667969 117.40625 C 228.75 118.726562 223.960938 120.386719 219.257812 122.351562 C 214.59375 124.300781 210.070312 126.539062 205.605469 128.90625 C 201.128906 131.277344 196.777344 133.890625 192.515625 136.625 C 188.273438 139.347656 184.109375 142.207031 180.085938 145.242188 C 176.027344 148.308594 172.070312 151.488281 168.226562 154.816406 C 164.40625 158.121094 160.71875 161.601562 157.214844 165.242188 C 154.769531 167.785156 152.4375 170.414062 150.160156 173.105469 C 150.003906 173.089844 149.847656 173.074219 149.695312 173.050781 C 148.613281 172.875 147.613281 172.492188 146.734375 171.914062 C 146.644531 171.859375 146.5625 171.796875 146.480469 171.738281 C 145.917969 171.304688 145.378906 170.859375 144.855469 170.375 C 144.230469 169.800781 143.792969 169.320312 143.261719 168.707031 C 143.203125 168.605469 143.101562 168.617188 143.035156 168.671875 C 142.953125 168.71875 142.910156 168.816406 142.984375 168.902344 C 143.386719 169.609375 143.691406 170.183594 144.046875 170.953125 C 144.371094 171.65625 144.621094 172.375 144.867188 173.105469 C 144.871094 173.117188 144.875 173.125 144.878906 173.136719 C 144.890625 173.164062 144.894531 173.195312 144.902344 173.226562 C 144.988281 173.585938 145.015625 173.714844 145.074219 174.078125 C 145.117188 174.324219 145.125 174.574219 145.140625 174.824219 C 145.152344 174.957031 145.140625 175.097656 145.136719 175.230469 C 145.136719 175.417969 145.136719 175.363281 145.121094 175.550781 C 145.027344 176.695312 144.773438 177.609375 144.222656 178.621094 C 144.210938 178.640625 144.128906 178.785156 144.175781 178.710938 C 144.140625 178.761719 144.109375 178.816406 144.078125 178.867188 C 144.003906 178.984375 143.929688 179.105469 143.851562 179.222656 C 143.375 179.828125 142.894531 180.425781 142.371094 180.992188 C 141.792969 181.621094 141.3125 182.058594 140.695312 182.59375 C 140.683594 182.601562 140.671875 182.609375 140.660156 182.617188 C 140.515625 182.71875 140.371094 182.824219 140.226562 182.929688 C 140.046875 183.054688 140.242188 183.328125 140.421875 183.203125 C 140.578125 183.089844 140.734375 182.980469 140.890625 182.867188 C 141.601562 182.464844 142.175781 182.15625 142.949219 181.796875 C 143.289062 181.640625 143.632812 181.5 143.980469 181.367188 C 141.4375 185.207031 139.035156 189.324219 137.65625 193.726562 C 136.304688 198.058594 135.425781 203.402344 138.417969 207.277344 C 141.390625 211.128906 146.609375 212.011719 151.203125 211.996094 C 156.09375 211.980469 160.96875 210.976562 165.664062 209.65625 C 170.433594 208.316406 175.0625 206.570312 179.617188 204.632812 C 184.140625 202.707031 188.558594 200.496094 192.867188 198.136719 C 197.234375 195.746094 201.488281 193.1875 205.675781 190.496094 C 209.96875 187.738281 214.097656 184.757812 218.207031 181.734375 C 222.164062 178.824219 226.003906 175.675781 229.675781 172.414062 C 233.410156 169.097656 237.03125 165.730469 240.5 162.109375 C 242.089844 160.449219 243.644531 158.761719 245.167969 157.039062 C 245.339844 156.976562 245.511719 156.917969 245.6875 156.859375 C 245.820312 156.824219 245.953125 156.789062 246.089844 156.753906 C 246.273438 156.707031 246.21875 156.71875 246.40625 156.691406 C 246.699219 156.648438 246.984375 156.613281 247.277344 156.585938 C 247.375 156.574219 247.464844 156.570312 247.5625 156.574219 C 247.652344 156.574219 247.746094 156.574219 247.839844 156.574219 C 247.867188 156.574219 248.066406 156.582031 247.988281 156.578125 C 248.246094 156.601562 248.5 156.621094 248.753906 156.65625 C 249.050781 156.699219 249.316406 156.757812 249.605469 156.835938 C 249.625 156.839844 249.785156 156.886719 249.703125 156.863281 C 249.761719 156.878906 249.820312 156.898438 249.875 156.917969 C 250.007812 156.960938 250.152344 156.992188 250.28125 157.050781 C 250.511719 157.148438 250.746094 157.242188 250.96875 157.359375 C 251.289062 157.527344 251.390625 157.585938 251.699219 157.785156 C 251.796875 157.847656 251.894531 157.921875 251.992188 157.992188 C 252.527344 158.417969 253.058594 158.84375 253.5625 159.3125 C 253.867188 159.59375 254.160156 159.886719 254.453125 160.183594 C 254.472656 160.207031 254.625 160.367188 254.5625 160.296875 C 254.617188 160.359375 254.671875 160.421875 254.726562 160.484375 C 254.875 160.652344 255.023438 160.820312 255.167969 160.992188 C 255.175781 161.003906 255.183594 161.011719 255.191406 161.023438 C 255.296875 161.171875 255.40625 161.320312 255.511719 161.46875 C 255.636719 161.644531 255.914062 161.449219 255.785156 161.273438 C 255.671875 161.113281 255.558594 160.953125 255.441406 160.792969 C 255.339844 160.613281 255.238281 160.429688 255.136719 160.246094 C 255.089844 160.164062 255.042969 160.082031 254.996094 159.996094 C 254.996094 159.996094 254.992188 159.996094 254.992188 159.996094 C 254.972656 159.953125 254.953125 159.914062 254.929688 159.875 C 254.734375 159.496094 254.542969 159.121094 254.371094 158.730469 C 254.058594 158.03125 253.804688 157.316406 253.5625 156.589844 C 253.558594 156.578125 253.554688 156.570312 253.550781 156.5625 C 253.542969 156.53125 253.535156 156.503906 253.527344 156.472656 C 253.445312 156.113281 253.421875 155.984375 253.355469 155.621094 C 253.3125 155.378906 253.308594 155.132812 253.296875 154.886719 C 253.289062 154.746094 253.292969 154.609375 253.292969 154.46875 C 253.292969 154.28125 253.289062 154.335938 253.304688 154.144531 C 253.398438 152.992188 253.679688 152.105469 254.207031 151.078125 C 254.21875 151.058594 254.300781 150.914062 254.253906 150.984375 C 254.289062 150.933594 254.320312 150.882812 254.351562 150.835938 C 254.429688 150.71875 254.507812 150.601562 254.582031 150.484375 C 255.042969 149.886719 255.503906 149.289062 256.027344 148.742188 C 256.320312 148.4375 256.617188 148.140625 256.917969 147.84375 C 256.941406 147.820312 257.101562 147.667969 257.03125 147.730469 C 257.09375 147.675781 257.15625 147.617188 257.21875 147.5625 C 257.386719 147.414062 257.554688 147.261719 257.722656 147.113281 C 257.824219 147.054688 257.8125 146.949219 257.753906 146.878906 C 257.707031 146.800781 257.613281 146.761719 257.527344 146.839844 C 257.34375 146.945312 257.164062 147.050781 256.984375 147.15625 C 256.902344 147.203125 256.820312 147.25 256.738281 147.296875 C 256.699219 147.320312 256.660156 147.339844 256.617188 147.359375 C 256.242188 147.550781 255.867188 147.734375 255.484375 147.90625 C 254.78125 148.21875 254.058594 148.480469 253.332031 148.738281 C 253.195312 148.769531 253.058594 148.804688 252.921875 148.835938 C 252.734375 148.878906 252.789062 148.867188 252.601562 148.898438 C 252.308594 148.949219 252.03125 148.980469 251.734375 149.003906 C 251.683594 149.007812 251.636719 149.011719 251.585938 149.015625 C 254.445312 145.058594 257.019531 140.878906 258.921875 136.375 C 260.769531 131.992188 262.035156 126.878906 260.277344 122.285156 C 258.480469 117.605469 253.039062 115.859375 248.457031 115.605469 Z M 259.257812 121.058594 C 260.542969 123.171875 260.90625 125.570312 260.75 128.015625 C 260.4375 132.90625 258.230469 137.679688 255.820312 141.878906 C 254.40625 144.34375 252.835938 146.71875 251.164062 149.027344 C 250.871094 149.023438 250.59375 148.996094 250.261719 148.933594 C 249.976562 148.882812 249.695312 148.824219 249.410156 148.757812 C 249.390625 148.753906 249.234375 148.710938 249.3125 148.738281 C 249.253906 148.71875 249.199219 148.699219 249.140625 148.679688 C 249.011719 148.632812 248.875 148.59375 248.746094 148.542969 C 248.503906 148.4375 248.261719 148.34375 248.03125 148.21875 C 247.949219 148.175781 247.871094 148.136719 247.792969 148.09375 C 247.773438 148.082031 247.628906 148 247.703125 148.046875 C 247.5625 147.957031 247.421875 147.871094 247.28125 147.78125 C 247.265625 147.773438 247.253906 147.765625 247.238281 147.753906 C 247.230469 147.746094 247.222656 147.738281 247.210938 147.730469 C 246.613281 147.273438 246.023438 146.808594 245.46875 146.296875 C 245.148438 146.003906 244.851562 145.703125 244.554688 145.390625 C 244.523438 145.359375 244.496094 145.328125 244.46875 145.300781 C 244.421875 145.25 244.453125 145.285156 244.457031 145.289062 C 244.394531 145.21875 244.335938 145.152344 244.273438 145.085938 C 244.128906 144.921875 243.984375 144.757812 243.839844 144.597656 C 243.78125 144.496094 243.671875 144.507812 243.605469 144.566406 C 243.527344 144.613281 243.488281 144.707031 243.5625 144.792969 C 243.664062 144.96875 243.769531 145.144531 243.871094 145.320312 C 243.921875 145.40625 243.972656 145.492188 244.023438 145.582031 C 244.027344 145.585938 244.027344 145.585938 244.027344 145.589844 C 244.042969 145.621094 244.058594 145.648438 244.074219 145.679688 C 244.261719 146.050781 244.445312 146.417969 244.613281 146.796875 C 244.898438 147.441406 245.140625 148.097656 245.375 148.761719 C 245.417969 148.878906 245.453125 148.996094 245.484375 149.113281 C 245.578125 149.476562 245.601562 149.601562 245.65625 149.96875 C 245.691406 150.210938 245.707031 150.460938 245.730469 150.707031 C 245.746094 150.84375 245.726562 150.988281 245.726562 151.125 C 245.722656 151.316406 245.726562 151.261719 245.710938 151.449219 C 245.667969 151.988281 245.566406 152.5 245.441406 153.027344 C 245.460938 152.945312 245.414062 153.101562 245.40625 153.121094 C 245.375 153.207031 245.34375 153.292969 245.316406 153.382812 C 245.277344 153.484375 245.242188 153.585938 245.199219 153.6875 C 245.082031 153.960938 244.960938 154.214844 244.820312 154.476562 C 244.792969 154.527344 244.761719 154.578125 244.734375 154.632812 C 244.777344 154.558594 244.691406 154.703125 244.679688 154.71875 C 244.597656 154.851562 244.515625 154.984375 244.433594 155.113281 C 243.949219 155.722656 243.46875 156.328125 242.941406 156.898438 C 242.664062 157.191406 242.382812 157.476562 242.097656 157.757812 C 242.074219 157.78125 241.910156 157.929688 241.980469 157.871094 C 241.917969 157.925781 241.855469 157.980469 241.792969 158.035156 C 241.621094 158.179688 241.453125 158.328125 241.285156 158.476562 C 241.269531 158.480469 241.261719 158.488281 241.25 158.5 C 241.105469 158.601562 240.960938 158.707031 240.816406 158.8125 C 240.636719 158.9375 240.832031 159.210938 241.011719 159.085938 C 241.167969 158.972656 241.324219 158.859375 241.480469 158.75 C 241.664062 158.644531 241.84375 158.542969 242.027344 158.441406 C 242.109375 158.394531 242.191406 158.347656 242.269531 158.304688 C 242.273438 158.304688 242.273438 158.304688 242.273438 158.300781 C 242.3125 158.28125 242.355469 158.261719 242.394531 158.242188 C 242.765625 158.054688 243.136719 157.867188 243.511719 157.695312 C 243.835938 157.542969 244.167969 157.40625 244.503906 157.277344 C 241.335938 160.835938 238.027344 164.261719 234.558594 167.527344 C 231.042969 170.839844 227.269531 174.167969 223.421875 177.234375 C 219.445312 180.402344 215.398438 183.453125 211.230469 186.363281 C 207.085938 189.253906 202.832031 192.003906 198.472656 194.566406 C 194.15625 197.105469 189.84375 199.453125 185.339844 201.640625 C 180.902344 203.800781 176.347656 205.691406 171.714844 207.386719 C 167.097656 209.078125 162.292969 210.394531 157.445312 211.128906 C 152.753906 211.839844 147.597656 212.152344 143.113281 210.335938 C 141.046875 209.496094 138.917969 208.011719 137.941406 205.925781 C 136.921875 203.753906 136.527344 201.390625 136.828125 198.992188 C 137.445312 194.113281 139.453125 189.613281 141.886719 185.375 C 142.703125 183.953125 143.589844 182.554688 144.511719 181.175781 C 144.707031 181.105469 144.90625 181.039062 145.105469 180.972656 C 145.238281 180.9375 145.375 180.902344 145.507812 180.867188 C 145.695312 180.816406 145.636719 180.828125 145.828125 180.800781 C 146.117188 180.757812 146.398438 180.726562 146.6875 180.703125 C 146.78125 180.695312 146.871094 180.691406 146.96875 180.691406 C 147.0625 180.691406 147.152344 180.695312 147.246094 180.695312 C 147.277344 180.695312 147.472656 180.703125 147.394531 180.695312 C 147.65625 180.714844 147.914062 180.730469 148.171875 180.769531 C 148.460938 180.820312 148.738281 180.878906 149.023438 180.949219 C 149.042969 180.957031 149.203125 181 149.125 180.972656 C 149.179688 180.992188 149.234375 181.011719 149.292969 181.03125 C 149.425781 181.078125 149.558594 181.117188 149.6875 181.167969 C 149.929688 181.265625 150.171875 181.355469 150.398438 181.480469 C 150.710938 181.65625 150.828125 181.722656 151.148438 181.917969 C 151.160156 181.925781 151.175781 181.9375 151.191406 181.945312 C 151.195312 181.953125 151.203125 181.960938 151.214844 181.96875 C 151.824219 182.429688 152.421875 182.898438 152.976562 183.425781 C 153.277344 183.714844 153.566406 184.007812 153.859375 184.300781 C 153.882812 184.324219 154.035156 184.484375 153.972656 184.414062 C 154.027344 184.476562 154.082031 184.539062 154.140625 184.601562 C 154.289062 184.769531 154.4375 184.933594 154.585938 185.101562 C 154.703125 185.261719 154.816406 185.421875 154.929688 185.582031 C 155.058594 185.757812 155.332031 185.5625 155.207031 185.382812 C 155.097656 185.234375 154.992188 185.085938 154.886719 184.9375 C 154.878906 184.925781 154.871094 184.914062 154.863281 184.90625 C 154.757812 184.722656 154.652344 184.542969 154.546875 184.363281 C 154.5 184.285156 154.453125 184.203125 154.40625 184.121094 C 154.402344 184.117188 154.402344 184.113281 154.398438 184.105469 C 154.375 184.058594 154.351562 184.011719 154.328125 183.96875 C 154.140625 183.59375 153.960938 183.222656 153.789062 182.84375 C 153.5 182.199219 153.253906 181.546875 153.027344 180.882812 C 152.996094 180.785156 152.96875 180.6875 152.945312 180.589844 C 152.855469 180.234375 152.832031 180.121094 152.777344 179.761719 C 152.738281 179.511719 152.722656 179.261719 152.703125 179.011719 C 152.695312 178.886719 152.703125 178.757812 152.699219 178.636719 C 152.699219 178.566406 152.699219 178.496094 152.699219 178.429688 C 152.703125 178.386719 152.707031 178.347656 152.710938 178.308594 C 152.804688 177.152344 153.078125 176.253906 153.609375 175.226562 C 153.636719 175.175781 153.664062 175.121094 153.691406 175.066406 C 153.652344 175.144531 153.734375 175.003906 153.746094 174.984375 C 153.828125 174.859375 153.910156 174.734375 153.992188 174.605469 C 154.457031 173.996094 154.925781 173.394531 155.457031 172.839844 C 155.746094 172.539062 156.039062 172.246094 156.335938 171.953125 C 156.359375 171.933594 156.519531 171.78125 156.453125 171.84375 C 156.515625 171.785156 156.578125 171.730469 156.640625 171.675781 C 156.804688 171.523438 156.972656 171.375 157.140625 171.226562 C 157.242188 171.164062 157.230469 171.058594 157.171875 170.992188 C 157.125 170.914062 157.03125 170.875 156.945312 170.949219 C 156.765625 171.054688 156.582031 171.164062 156.402344 171.269531 C 156.320312 171.316406 156.238281 171.363281 156.15625 171.410156 C 156.117188 171.429688 156.078125 171.453125 156.039062 171.472656 C 155.667969 171.660156 155.296875 171.839844 154.917969 172.011719 C 154.207031 172.332031 153.472656 172.597656 152.738281 172.859375 C 152.605469 172.890625 152.46875 172.917969 152.335938 172.949219 C 152.152344 172.992188 152.207031 172.980469 152.019531 173.011719 C 151.730469 173.0625 151.449219 173.09375 151.152344 173.117188 C 151.054688 173.125 150.964844 173.128906 150.867188 173.128906 C 150.777344 173.128906 150.683594 173.128906 150.59375 173.128906 C 150.589844 173.132812 150.585938 173.128906 150.578125 173.128906 C 153.820312 169.308594 157.199219 165.628906 160.789062 162.125 C 164.46875 158.539062 168.300781 155.074219 172.308594 151.796875 C 176.199219 148.609375 180.175781 145.542969 184.269531 142.613281 C 188.300781 139.726562 192.445312 136.976562 196.6875 134.40625 C 201.105469 131.734375 205.542969 129.265625 210.132812 126.933594 C 214.71875 124.597656 219.449219 122.523438 224.273438 120.734375 C 228.988281 118.984375 233.796875 117.5625 238.730469 116.640625 C 241.175781 116.179688 243.660156 115.945312 246.148438 115.890625 C 248.621094 115.835938 251.210938 116.078125 253.554688 116.890625 C 255.820312 117.675781 257.980469 118.96875 259.257812 121.058594 Z M 259.257812 121.058594 " fill-opacity="1" fill-rule="nonzero"/></g></g></g><g fill="#000000" fill-opacity="1"><g transform="translate(172.908274, 189.157538)"><g><path d="M 9.921875 -22.1875 C 7.035156 -18.40625 5.59375 -14.316406 5.59375 -9.921875 C 5.59375 -4.691406 7.785156 -0.632812 12.171875 2.25 C 14.734375 3.976562 17.640625 4.84375 20.890625 4.84375 C 24.140625 4.84375 26.960938 4.203125 29.359375 2.921875 C 33.859375 0.585938 36.390625 -3.332031 36.953125 -8.84375 C 37.003906 -9.226562 37.03125 -9.617188 37.03125 -10.015625 C 37.03125 -12.066406 36.457031 -14.285156 35.3125 -16.671875 C 34.175781 -19.066406 32.332031 -21.265625 29.78125 -23.265625 L 14.765625 -35.109375 C 11.484375 -37.671875 9.84375 -40.976562 9.84375 -45.03125 C 9.84375 -49.09375 11.148438 -52.523438 13.765625 -55.328125 C 16.378906 -58.140625 19.910156 -59.546875 24.359375 -59.546875 C 26.578125 -59.546875 28.992188 -59.269531 31.609375 -58.71875 L 34.953125 -58.71875 L 35.109375 -48.453125 L 34.28125 -48.453125 C 34.226562 -51.128906 33.269531 -53.226562 31.40625 -54.75 C 29.539062 -56.28125 27.203125 -57.046875 24.390625 -57.046875 C 21.585938 -57.046875 19.238281 -56.113281 17.34375 -54.25 C 15.457031 -52.394531 14.515625 -50.003906 14.515625 -47.078125 C 14.515625 -44.160156 15.738281 -41.726562 18.1875 -39.78125 L 33.609375 -27.609375 C 39.722656 -22.765625 42.78125 -16.925781 42.78125 -10.09375 C 42.78125 -4.976562 40.753906 -0.582031 36.703125 3.09375 C 33.191406 6.257812 28.519531 7.84375 22.6875 7.84375 C 19.125 7.84375 15.953125 7.175781 13.171875 5.84375 C 7.953125 3.394531 4.8125 -0.773438 3.75 -6.671875 C 3.582031 -7.554688 3.5 -8.679688 3.5 -10.046875 C 3.5 -11.410156 3.890625 -13.273438 4.671875 -15.640625 C 5.453125 -18.003906 6.953125 -20.378906 9.171875 -22.765625 Z M 9.921875 -22.1875 "/></g></g></g><g fill="#000000" fill-opacity="1"><g transform="translate(117.106982, 258.151126)"><g><path d="M 11.5625 -20.28125 C 14.65625 -20.28125 17.160156 -19.347656 19.078125 -17.484375 C 21.003906 -15.617188 21.96875 -13.171875 21.96875 -10.140625 C 21.96875 -7.109375 21.003906 -4.660156 19.078125 -2.796875 C 17.160156 -0.929688 14.65625 0 11.5625 0 L 1.734375 0 L 1.734375 -0.296875 L 2.109375 -0.296875 C 2.617188 -0.296875 3.050781 -0.472656 3.40625 -0.828125 C 3.757812 -1.179688 3.945312 -1.609375 3.96875 -2.109375 L 3.96875 -18.34375 C 3.96875 -18.8125 3.78125 -19.203125 3.40625 -19.515625 C 3.03125 -19.835938 2.597656 -20 2.109375 -20 L 1.765625 -20 L 1.734375 -20.28125 Z M 5.859375 -19.421875 L 5.859375 -0.875 L 11.5625 -0.875 C 13.1875 -0.875 14.617188 -1.257812 15.859375 -2.03125 C 17.109375 -2.800781 18.078125 -3.882812 18.765625 -5.28125 C 19.453125 -6.6875 19.796875 -8.304688 19.796875 -10.140625 C 19.796875 -12.921875 19.035156 -15.160156 17.515625 -16.859375 C 16.003906 -18.566406 14.019531 -19.421875 11.5625 -19.421875 Z M 5.859375 -19.421875 "/></g></g></g><g fill="#000000" fill-opacity="1"><g transform="translate(140.499513, 258.151126)"><g><path d="M 2.109375 -0.296875 C 2.617188 -0.296875 3.050781 -0.472656 3.40625 -0.828125 C 3.757812 -1.179688 3.945312 -1.609375 3.96875 -2.109375 L 3.96875 -18.34375 C 3.914062 -18.8125 3.710938 -19.203125 3.359375 -19.515625 C 3.015625 -19.835938 2.597656 -20 2.109375 -20 L 1.765625 -20 L 1.734375 -20.28125 L 10.234375 -20.28125 C 10.828125 -20.28125 11.476562 -20.335938 12.1875 -20.453125 C 12.894531 -20.578125 13.394531 -20.695312 13.6875 -20.8125 L 13.6875 -17.15625 L 13.390625 -17.15625 L 13.390625 -17.6875 C 13.390625 -18.144531 13.226562 -18.535156 12.90625 -18.859375 C 12.59375 -19.191406 12.210938 -19.367188 11.765625 -19.390625 L 5.859375 -19.390625 L 5.859375 -10.4375 L 10.75 -10.4375 C 11.132812 -10.457031 11.460938 -10.601562 11.734375 -10.875 C 12.003906 -11.144531 12.140625 -11.484375 12.140625 -11.890625 L 12.140625 -12.296875 L 12.4375 -12.296875 L 12.4375 -7.703125 L 12.140625 -7.703125 L 12.140625 -8.140625 C 12.140625 -8.523438 12.007812 -8.851562 11.75 -9.125 C 11.488281 -9.394531 11.164062 -9.539062 10.78125 -9.5625 L 5.859375 -9.5625 L 5.859375 -0.90625 L 10 -0.90625 C 11.425781 -0.90625 12.515625 -1.222656 13.265625 -1.859375 C 14.023438 -2.492188 14.65625 -3.441406 15.15625 -4.703125 L 15.453125 -4.703125 L 13.765625 0 L 1.734375 0 L 1.734375 -0.296875 Z M 2.109375 -0.296875 "/></g></g></g><g fill="#000000" fill-opacity="1"><g transform="translate(157.22503, 258.151126)"><g><path d="M 21.765625 -20 L 21.515625 -20 C 20.847656 -20 20.25 -19.738281 19.71875 -19.21875 C 19.40625 -18.945312 19.160156 -18.609375 18.984375 -18.203125 L 12 -2.578125 C 11.28125 -1.015625 10.921875 -0.0195312 10.921875 0.40625 L 10.671875 0.40625 L 2.53125 -18.171875 C 2.257812 -18.785156 1.882812 -19.242188 1.40625 -19.546875 C 0.9375 -19.847656 0.457031 -20 -0.03125 -20 L -0.265625 -20 L -0.265625 -20.28125 L 6.265625 -20.28125 L 6.265625 -20 L 6 -20 C 5.414062 -20 5.03125 -19.726562 4.84375 -19.1875 C 4.800781 -19.070312 4.78125 -18.9375 4.78125 -18.78125 C 4.78125 -18.625 4.828125 -18.429688 4.921875 -18.203125 L 10.984375 -3.015625 L 17.3125 -18.203125 C 17.382812 -18.429688 17.421875 -18.65625 17.421875 -18.875 C 17.421875 -19.101562 17.316406 -19.347656 17.109375 -19.609375 C 16.910156 -19.867188 16.609375 -20 16.203125 -20 L 15.9375 -20 L 15.9375 -20.28125 L 21.765625 -20.28125 Z M 21.765625 -20 "/></g></g></g><g fill="#000000" fill-opacity="1"><g transform="translate(178.67543, 258.151126)"><g/></g></g><g fill="#000000" fill-opacity="1"><g transform="translate(185.922187, 258.151126)"><g><path d="M 1.765625 -1.1875 C 1.710938 -1.457031 1.6875 -1.976562 1.6875 -2.75 C 1.6875 -3.519531 1.828125 -4.34375 2.109375 -5.21875 L 2.375 -5.21875 C 2.351562 -5 2.34375 -4.785156 2.34375 -4.578125 C 2.34375 -3.398438 2.703125 -2.421875 3.421875 -1.640625 C 4.140625 -0.859375 5.085938 -0.46875 6.265625 -0.46875 C 7.484375 -0.46875 8.484375 -0.832031 9.265625 -1.5625 C 10.046875 -2.300781 10.4375 -3.222656 10.4375 -4.328125 C 10.4375 -5.441406 10.054688 -6.347656 9.296875 -7.046875 L 3.734375 -12.203125 C 2.691406 -13.171875 2.171875 -14.335938 2.171875 -15.703125 C 2.171875 -17.078125 2.628906 -18.25 3.546875 -19.21875 C 4.460938 -20.195312 5.707031 -20.6875 7.28125 -20.6875 C 8.007812 -20.6875 8.835938 -20.59375 9.765625 -20.40625 L 10.890625 -20.40625 L 10.890625 -16.84375 L 10.640625 -16.84375 C 10.640625 -17.75 10.320312 -18.472656 9.6875 -19.015625 C 9.0625 -19.554688 8.253906 -19.828125 7.265625 -19.828125 C 6.285156 -19.828125 5.460938 -19.5 4.796875 -18.84375 C 4.128906 -18.1875 3.796875 -17.363281 3.796875 -16.375 C 3.796875 -15.382812 4.179688 -14.535156 4.953125 -13.828125 L 10.671875 -8.546875 C 11.628906 -7.660156 12.109375 -6.441406 12.109375 -4.890625 C 12.109375 -3.347656 11.613281 -2.078125 10.625 -1.078125 C 9.644531 -0.0859375 8.335938 0.40625 6.703125 0.40625 C 5.847656 0.40625 4.941406 0.273438 3.984375 0.015625 C 3.023438 -0.242188 2.285156 -0.644531 1.765625 -1.1875 Z M 1.765625 -1.1875 "/></g></g></g><g fill="#000000" fill-opacity="1"><g transform="translate(199.691031, 258.151126)"><g><path d="M 20.75 -0.296875 L 20.984375 -0.296875 L 20.984375 0 L 14.46875 0 L 14.46875 -0.296875 L 14.71875 -0.296875 C 15.125 -0.296875 15.425781 -0.425781 15.625 -0.6875 C 15.832031 -0.945312 15.9375 -1.191406 15.9375 -1.421875 C 15.9375 -1.648438 15.898438 -1.878906 15.828125 -2.109375 L 13.96875 -7.046875 L 6.140625 -7.046875 L 4.203125 -2.09375 C 4.128906 -1.851562 4.09375 -1.625 4.09375 -1.40625 C 4.09375 -1.1875 4.191406 -0.945312 4.390625 -0.6875 C 4.597656 -0.425781 4.90625 -0.296875 5.3125 -0.296875 L 5.5625 -0.296875 L 5.5625 0 L -0.265625 0 L -0.265625 -0.296875 L 0 -0.296875 C 0.488281 -0.296875 0.960938 -0.445312 1.421875 -0.75 C 1.890625 -1.0625 2.265625 -1.515625 2.546875 -2.109375 L 9.109375 -17.703125 C 9.816406 -19.273438 10.171875 -20.269531 10.171875 -20.6875 L 10.4375 -20.6875 L 18.203125 -2.109375 C 18.472656 -1.515625 18.835938 -1.0625 19.296875 -0.75 C 19.765625 -0.445312 20.25 -0.296875 20.75 -0.296875 Z M 6.5 -7.90625 L 13.625 -7.90625 L 10.140625 -17.21875 Z M 6.5 -7.90625 "/></g></g></g><g fill="#000000" fill-opacity="1"><g transform="translate(220.329799, 258.151126)"><g><path d="M 26.078125 -0.296875 L 26.546875 -0.296875 L 26.546875 0 L 20.265625 0 L 20.265625 -0.265625 L 20.6875 -0.265625 C 21.019531 -0.265625 21.300781 -0.394531 21.53125 -0.65625 C 21.769531 -0.914062 21.867188 -1.195312 21.828125 -1.5 L 20.515625 -16.09375 L 14.4375 -2.546875 C 13.894531 -1.367188 13.566406 -0.382812 13.453125 0.40625 L 13.15625 0.40625 L 5.734375 -15.6875 L 4.5 -1.5 C 4.457031 -1.195312 4.550781 -0.914062 4.78125 -0.65625 C 5.007812 -0.394531 5.28125 -0.265625 5.59375 -0.265625 L 6.0625 -0.265625 L 6.0625 0 L 0.4375 0 L 0.4375 -0.296875 L 0.90625 -0.296875 C 1.4375 -0.296875 1.898438 -0.457031 2.296875 -0.78125 C 2.691406 -1.113281 2.929688 -1.554688 3.015625 -2.109375 L 5.1875 -20.6875 L 5.484375 -20.6875 L 13.5625 -3.21875 L 21.484375 -20.6875 L 21.734375 -20.6875 L 23.96875 -2.109375 C 24.0625 -1.335938 24.445312 -0.800781 25.125 -0.5 C 25.414062 -0.363281 25.734375 -0.296875 26.078125 -0.296875 Z M 26.078125 -0.296875 "/></g></g></g></svg>